<svg viewBox="0 0 22 22" xmlns="http://www.w3.org/2000/svg">
  <defs>
    <linearGradient id="oxidised" x1="0%" y1="0%" x2="100%" y2="100%">
      <stop offset="0%" stop-color="#5DDBD4"/>
      <stop offset="40%" stop-color="#1AACAA"/>
      <stop offset="70%" stop-color="#0D8A8A"/>
      <stop offset="100%" stop-color="#065C5C"/>
    </linearGradient>
    <linearGradient id="copper" x1="0%" y1="0%" x2="100%" y2="100%">
      <stop offset="0%" stop-color="#F0A050"/>
      <stop offset="40%" stop-color="#C87941"/>
      <stop offset="70%" stop-color="#E8823A"/>
      <stop offset="100%" stop-color="#A0522D"/>
    </linearGradient>
  </defs>
  <path d="M 3 2 L 7 2 L 12.123 12.297 C 12.629 13.322 12.796 14.023 12.276 14.573 L 7 20 L 4 20 C 3 20 2 19 2 18 L 2 4 C 2 3 3 2 4 2" fill="url(#oxidised)"/>
  <path d="M 9 2 L 18 2 C 19 2 20 3 20 4 L 20 18 C 20 19 19 20 18 20 L 9 20 L 13.835 15.185 C 14.422 14.558 14.644 13.749 14.152 12.748 L 9 2" fill="url(#copper)"/>
</svg>
