<svg xmlns="http://www.w3.org/2000/svg" xml:space="preserve" width="1155" height="1155" viewBox="0 0 1155 1155"><path fill="#fff" d="M0 0h1155v1155H0z"/><path fill="#333" d="M382.9 72.695h-18.095C356.6255 72.695 350 79.32554 350 87.5c0 8.17355 6.6255 14.805 14.805 14.805H385v-29.61zm19.6 0H385v29.61h35v-29.61zm35 0H420v29.61h35v-29.61zm35 0H455v29.61h35v-29.61zm35 0H490v29.61h35v-29.61zm35 0H525v29.61h35v-29.61zm35 0H560v29.61h35v-29.61zm37.695 0H595v29.61h20.195c8.17607 0 14.805-6.629 14.805-14.805 0-8.17663-6.62893-14.805-14.805-14.805m82.705 0h-18.095C671.6255 72.695 665 79.32554 665 87.5c0 8.17355 6.6255 14.805 14.805 14.805H700v-29.61zm19.6 0H700v29.61h35v-29.61zm35 0H735v29.61h35v-29.61zm37.695 0H770v29.61h20.195c8.17607 0 14.805-6.629 14.805-14.805 0-8.17663-6.62893-14.805-14.805-14.805m-407.295 35h-18.095c-8.1795 0-14.805 6.63054-14.805 14.805 0 8.17355 6.6255 14.805 14.805 14.805H385v-29.61zm19.6 0H385v29.61h35v-29.61zm37.695 0H420v29.61h20.195c8.17607 0 14.805-6.629 14.805-14.805 0-8.17663-6.62893-14.805-14.805-14.805m82.705 0h-18.095c-8.1795 0-14.805 6.63054-14.805 14.805 0 8.17355 6.6255 14.805 14.805 14.805H525v-29.61zm22.295 0H525v29.61h20.195c8.17607 0 14.805-6.629 14.805-14.805 0-8.17663-6.62893-14.805-14.805-14.805m102.305 0c8.17691 0 14.805 6.62851 14.805 14.805 0 8.17691-6.62809 14.805-14.805 14.805-8.17649 0-14.805-6.62809-14.805-14.805 0-8.17649 6.62851-14.805 14.805-14.805m70 0c8.17691 0 14.805 6.62851 14.805 14.805 0 8.17691-6.62809 14.805-14.805 14.805-8.17649 0-14.805-6.62809-14.805-14.805 0-8.17649 6.62851-14.805 14.805-14.805m-299.6 35h-18.095c-8.1795 0-14.805 6.63054-14.805 14.805 0 8.17355 6.6255 14.805 14.805 14.805H420v-29.61zm22.295 0H420v29.61h20.195c8.17607 0 14.805-6.629 14.805-14.805 0-8.17663-6.62893-14.805-14.805-14.805m207.305 0c8.17691 0 14.805 6.62851 14.805 14.805 0 8.17691-6.62809 14.805-14.805 14.805-8.17649 0-14.805-6.62809-14.805-14.805 0-8.17649 6.62851-14.805 14.805-14.805m70 0c8.17691 0 14.805 6.62851 14.805 14.805 0 8.17691-6.62809 14.805-14.805 14.805-8.17649 0-14.805-6.62809-14.805-14.805 0-8.17649 6.62851-14.805 14.805-14.805m-350 35c8.17691 0 14.805 6.62851 14.805 14.805 0 8.17691-6.62809 14.805-14.805 14.805-8.17649 0-14.805-6.62809-14.805-14.805 0-8.17649 6.62851-14.805 14.805-14.805m85.4 0h-18.095c-8.1795 0-14.805 6.63054-14.805 14.805 0 8.17355 6.6255 14.805 14.805 14.805H455v-29.61zm19.6 0H455v29.61h35v-29.61zm37.695 0H490v29.61h20.195c8.17607 0 14.805-6.629 14.805-14.805 0-8.17663-6.62893-14.805-14.805-14.805m82.705 0h-18.095c-8.1795 0-14.805 6.63054-14.805 14.805 0 8.17355 6.6255 14.805 14.805 14.805H595v-29.61zm22.295 0H595v29.61h20.195c8.17607 0 14.805-6.629 14.805-14.805 0-8.17663-6.62893-14.805-14.805-14.805m67.305 0c8.17691 0 14.805 6.62851 14.805 14.805 0 8.17691-6.62809 14.805-14.805 14.805-8.17649 0-14.805-6.62809-14.805-14.805 0-8.17649 6.62851-14.805 14.805-14.805m-264.6 35h-18.095c-8.1795 0-14.805 6.63054-14.805 14.805 0 8.17355 6.6255 14.805 14.805 14.805H420v-29.61zm22.295 0H420v29.61h20.195c8.17607 0 14.805-6.629 14.805-14.805 0-8.17663-6.62893-14.805-14.805-14.805m137.305 0c8.17691 0 14.805 6.62851 14.805 14.805 0 8.17691-6.62809 14.805-14.805 14.805-8.17649 0-14.805-6.62809-14.805-14.805 0-8.17649 6.62851-14.805 14.805-14.805m70 0c8.17691 0 14.805 6.62851 14.805 14.805 0 8.17691-6.62809 14.805-14.805 14.805-8.17649 0-14.805-6.62809-14.805-14.805 0-8.17649 6.62851-14.805 14.805-14.805m105 0c8.17691 0 14.805 6.62851 14.805 14.805 0 8.17691-6.62809 14.805-14.805 14.805-8.17649 0-14.805-6.62809-14.805-14.805 0-8.17649 6.62851-14.805 14.805-14.805m-264.6 35h-18.095c-8.1795 0-14.805 6.63054-14.805 14.805 0 8.17355 6.6255 14.805 14.805 14.805H490v-29.61zm19.6 0H490v29.61h35v-29.61zm37.695 0H525v29.61h20.195c8.17607 0 14.805-6.629 14.805-14.805 0-8.17663-6.62893-14.805-14.805-14.805m82.705 0h-18.095c-8.1795 0-14.805 6.63054-14.805 14.805 0 8.17355 6.6255 14.805 14.805 14.805H630v-29.61zm22.295 0H630v29.61h20.195c8.17607 0 14.805-6.629 14.805-14.805 0-8.17663-6.62893-14.805-14.805-14.805m82.705 0h-18.095c-8.1795 0-14.805 6.63054-14.805 14.805 0 8.17355 6.6255 14.805 14.805 14.805H735v-29.61zm22.295 0H735v29.61h20.195c8.17607 0 14.805-6.629 14.805-14.805 0-8.17663-6.62893-14.805-14.805-14.805m-387.695 35c8.17691 0 14.805 6.62851 14.805 14.805 0 8.17691-6.62809 14.805-14.805 14.805-8.17649 0-14.805-6.62809-14.805-14.805 0-8.17649 6.62851-14.805 14.805-14.805m70 0c8.17691 0 14.805 6.62851 14.805 14.805 0 8.17691-6.62809 14.805-14.805 14.805-8.17649 0-14.805-6.62809-14.805-14.805 0-8.17649 6.62851-14.805 14.805-14.805m70 0c8.17691 0 14.805 6.62851 14.805 14.805 0 8.17691-6.62809 14.805-14.805 14.805-8.17649 0-14.805-6.62809-14.805-14.805 0-8.17649 6.62851-14.805 14.805-14.805m70 0c8.17691 0 14.805 6.62851 14.805 14.805 0 8.17691-6.62809 14.805-14.805 14.805-8.17649 0-14.805-6.62809-14.805-14.805 0-8.17649 6.62851-14.805 14.805-14.805m70 0c8.17691 0 14.805 6.62851 14.805 14.805 0 8.17691-6.62809 14.805-14.805 14.805-8.17649 0-14.805-6.62809-14.805-14.805 0-8.17649 6.62851-14.805 14.805-14.805m70 0c8.17691 0 14.805 6.62851 14.805 14.805 0 8.17691-6.62809 14.805-14.805 14.805-8.17649 0-14.805-6.62809-14.805-14.805 0-8.17649 6.62851-14.805 14.805-14.805m70 0c8.17691 0 14.805 6.62851 14.805 14.805 0 8.17691-6.62809 14.805-14.805 14.805-8.17649 0-14.805-6.62809-14.805-14.805 0-8.17649 6.62851-14.805 14.805-14.805m-404.6 35h-18.095c-8.1795 0-14.805 6.63054-14.805 14.805 0 8.17355 6.6255 14.805 14.805 14.805H385v-29.61zm19.6 0H385v29.61h35v-29.61zm37.695 0H420v29.61h20.195c8.17607 0 14.805-6.629 14.805-14.805 0-8.17663-6.62893-14.805-14.805-14.805m67.305 0c8.17691 0 14.805 6.62851 14.805 14.805 0 8.17691-6.62809 14.805-14.805 14.805-8.17649 0-14.805-6.62809-14.805-14.805 0-8.17649 6.62851-14.805 14.805-14.805m120.4 0h-18.095c-8.1795 0-14.805 6.63054-14.805 14.805 0 8.17355 6.6255 14.805 14.805 14.805H630v-29.61zm19.6 0H630v29.61h35v-29.61zm35 0H665v29.61h35v-29.61zm35 0H700v29.61h35v-29.61zm37.695 0H735v29.61h20.195c8.17607 0 14.805-6.629 14.805-14.805 0-8.17663-6.62893-14.805-14.805-14.805m-667.695 35c8.17691 0 14.805 6.62851 14.805 14.805 0 8.17691-6.62809 14.805-14.805 14.805-8.17649 0-14.805-6.62809-14.805-14.805 0-8.17649 6.62851-14.805 14.805-14.805m85.4 0h-18.095c-8.1795 0-14.805 6.63054-14.805 14.805 0 8.17355 6.6255 14.805 14.805 14.805H175v-29.61zm22.295 0H175v29.61h20.195c8.17607 0 14.805-6.629 14.805-14.805 0-8.17663-6.62893-14.805-14.805-14.805m82.705 0h-18.095c-8.1795 0-14.805 6.63054-14.805 14.805 0 8.17355 6.6255 14.805 14.805 14.805H280v-29.61zm19.6 0H280v29.61h35v-29.61zm37.695 0H315v29.61h20.195c8.17607 0 14.805-6.629 14.805-14.805 0-8.17663-6.62893-14.805-14.805-14.805m82.705 0h-18.095c-8.1795 0-14.805 6.63054-14.805 14.805 0 8.17355 6.6255 14.805 14.805 14.805H420v-29.61zm22.295 0H420v29.61h20.195c8.17607 0 14.805-6.629 14.805-14.805 0-8.17663-6.62893-14.805-14.805-14.805m102.305 0c8.17691 0 14.805 6.62851 14.805 14.805 0 8.17691-6.62809 14.805-14.805 14.805-8.17649 0-14.805-6.62809-14.805-14.805 0-8.17649 6.62851-14.805 14.805-14.805m70 0c8.17691 0 14.805 6.62851 14.805 14.805 0 8.17691-6.62809 14.805-14.805 14.805-8.17649 0-14.805-6.62809-14.805-14.805 0-8.17649 6.62851-14.805 14.805-14.805m70 0c8.17691 0 14.805 6.62851 14.805 14.805 0 8.17691-6.62809 14.805-14.805 14.805-8.17649 0-14.805-6.62809-14.805-14.805 0-8.17649 6.62851-14.805 14.805-14.805m175 0c8.17691 0 14.805 6.62851 14.805 14.805 0 8.17691-6.62809 14.805-14.805 14.805-8.17649 0-14.805-6.62809-14.805-14.805 0-8.17649 6.62851-14.805 14.805-14.805m105 0c8.17691 0 14.805 6.62851 14.805 14.805 0 8.17691-6.62809 14.805-14.805 14.805-8.17649 0-14.805-6.62809-14.805-14.805 0-8.17649 6.62851-14.805 14.805-14.805m85.4 0h-18.095c-8.1795 0-14.805 6.63054-14.805 14.805 0 8.17355 6.6255 14.805 14.805 14.805H1050v-29.61zm22.295 0H1050v29.61h20.195c8.17607 0 14.805-6.629 14.805-14.805 0-8.17663-6.62893-14.805-14.805-14.805m-967.295 35H84.805C76.6255 387.695 70 394.32554 70 402.5c0 8.17355 6.6255 14.805 14.805 14.805H105v-29.61zm19.6 0H105v29.61h35v-29.61zm35 0H140v29.61h35v-29.61zm37.695 0H175v29.61h20.195c8.17607 0 14.805-6.629 14.805-14.805 0-8.17663-6.62893-14.805-14.805-14.805m67.305 0c8.17691 0 14.805 6.62851 14.805 14.805 0 8.17691-6.62809 14.805-14.805 14.805-8.17649 0-14.805-6.62809-14.805-14.805 0-8.17649 6.62851-14.805 14.805-14.805m70 0c8.17691 0 14.805 6.62851 14.805 14.805 0 8.17691-6.62809 14.805-14.805 14.805-8.17649 0-14.805-6.62809-14.805-14.805 0-8.17649 6.62851-14.805 14.805-14.805m120.4 0h-18.095c-8.1795 0-14.805 6.63054-14.805 14.805 0 8.17355 6.6255 14.805 14.805 14.805H455v-29.61zm19.6 0H455v29.61h35v-29.61zm35 0H490v29.61h35v-29.61zm35 0H525v29.61h35v-29.61zm35 0H560v29.61h35v-29.61zm37.695 0H595v29.61h20.195c8.17607 0 14.805-6.629 14.805-14.805 0-8.17663-6.62893-14.805-14.805-14.805m82.705 0h-18.095c-8.1795 0-14.805 6.63054-14.805 14.805 0 8.17355 6.6255 14.805 14.805 14.805H700v-29.61zm19.6 0H700v29.61h35v-29.61zm37.695 0H735v29.61h20.195c8.17607 0 14.805-6.629 14.805-14.805 0-8.17663-6.62893-14.805-14.805-14.805m82.705 0h-18.095c-8.1795 0-14.805 6.63054-14.805 14.805 0 8.17355 6.6255 14.805 14.805 14.805H840v-29.61zm19.6 0H840v29.61h35v-29.61zm35 0H875v29.61h35v-29.61zm37.695 0H910v29.61h20.195c8.17607 0 14.805-6.629 14.805-14.805 0-8.17663-6.62893-14.805-14.805-14.805m137.305 0c8.17691 0 14.805 6.62851 14.805 14.805 0 8.17691-6.62809 14.805-14.805 14.805-8.17649 0-14.805-6.62809-14.805-14.805 0-8.17649 6.62851-14.805 14.805-14.805m-929.6 35h-18.095c-8.1795 0-14.805 6.63054-14.805 14.805 0 8.17355 6.6255 14.805 14.805 14.805H140v-29.61zm19.6 0H140v29.61h35v-29.61zm35 0H175v29.61h35v-29.61zm35 0H210v29.61h35v-29.61zm35 0H245v29.61h35v-29.61zm37.695 0H280v29.61h20.195c8.17607 0 14.805-6.629 14.805-14.805 0-8.17663-6.62893-14.805-14.805-14.805m82.705 0h-18.095c-8.1795 0-14.805 6.63054-14.805 14.805 0 8.17355 6.6255 14.805 14.805 14.805H385v-29.61zm22.295 0H385v29.61h20.195c8.17607 0 14.805-6.629 14.805-14.805 0-8.17663-6.62893-14.805-14.805-14.805m67.305 0c8.17691 0 14.805 6.62851 14.805 14.805 0 8.17691-6.62809 14.805-14.805 14.805-8.17649 0-14.805-6.62809-14.805-14.805 0-8.17649 6.62851-14.805 14.805-14.805m70 0c8.17691 0 14.805 6.62851 14.805 14.805 0 8.17691-6.62809 14.805-14.805 14.805-8.17649 0-14.805-6.62809-14.805-14.805 0-8.17649 6.62851-14.805 14.805-14.805m105 0c8.17691 0 14.805 6.62851 14.805 14.805 0 8.17691-6.62809 14.805-14.805 14.805-8.17649 0-14.805-6.62809-14.805-14.805 0-8.17649 6.62851-14.805 14.805-14.805m70 0c8.17691 0 14.805 6.62851 14.805 14.805 0 8.17691-6.62809 14.805-14.805 14.805-8.17649 0-14.805-6.62809-14.805-14.805 0-8.17649 6.62851-14.805 14.805-14.805m70 0c8.17691 0 14.805 6.62851 14.805 14.805 0 8.17691-6.62809 14.805-14.805 14.805-8.17649 0-14.805-6.62809-14.805-14.805 0-8.17649 6.62851-14.805 14.805-14.805m105 0c8.17691 0 14.805 6.62851 14.805 14.805 0 8.17691-6.62809 14.805-14.805 14.805-8.17649 0-14.805-6.62809-14.805-14.805 0-8.17649 6.62851-14.805 14.805-14.805m120.4 0h-18.095c-8.1795 0-14.805 6.63054-14.805 14.805 0 8.17355 6.6255 14.805 14.805 14.805H1015v-29.61zm22.295 0H1015v29.61h20.195c8.17607 0 14.805-6.629 14.805-14.805 0-8.17663-6.62893-14.805-14.805-14.805m-912.695 35c8.17691 0 14.805 6.62851 14.805 14.805 0 8.17691-6.62809 14.805-14.805 14.805-8.17649 0-14.805-6.62809-14.805-14.805 0-8.17649 6.62851-14.805 14.805-14.805m70 0c8.17691 0 14.805 6.62851 14.805 14.805 0 8.17691-6.62809 14.805-14.805 14.805-8.17649 0-14.805-6.62809-14.805-14.805 0-8.17649 6.62851-14.805 14.805-14.805m155.4 0h-18.095c-8.1795 0-14.805 6.63054-14.805 14.805 0 8.17355 6.6255 14.805 14.805 14.805H350v-29.61zm22.295 0H350v29.61h20.195c8.17607 0 14.805-6.629 14.805-14.805 0-8.17663-6.62893-14.805-14.805-14.805m67.305 0c8.17691 0 14.805 6.62851 14.805 14.805 0 8.17691-6.62809 14.805-14.805 14.805-8.17649 0-14.805-6.62809-14.805-14.805 0-8.17649 6.62851-14.805 14.805-14.805m70 0c8.17691 0 14.805 6.62851 14.805 14.805 0 8.17691-6.62809 14.805-14.805 14.805-8.17649 0-14.805-6.62809-14.805-14.805 0-8.17649 6.62851-14.805 14.805-14.805m140 0c8.17691 0 14.805 6.62851 14.805 14.805 0 8.17691-6.62809 14.805-14.805 14.805-8.17649 0-14.805-6.62809-14.805-14.805 0-8.17649 6.62851-14.805 14.805-14.805m85.4 0h-18.095c-8.1795 0-14.805 6.63054-14.805 14.805 0 8.17355 6.6255 14.805 14.805 14.805H735v-29.61zm19.6 0H735v29.61h35v-29.61zm35 0H770v29.61h35v-29.61zm35 0H805v29.61h35v-29.61zm35 0H840v29.61h35v-29.61zm35 0H875v29.61h35v-29.61zm37.695 0H910v29.61h20.195c8.17607 0 14.805-6.629 14.805-14.805 0-8.17663-6.62893-14.805-14.805-14.805m137.305 0c8.17691 0 14.805 6.62851 14.805 14.805 0 8.17691-6.62809 14.805-14.805 14.805-8.17649 0-14.805-6.62809-14.805-14.805 0-8.17649 6.62851-14.805 14.805-14.805m-964.6 35H84.805C76.6255 492.695 70 499.32554 70 507.5c0 8.17355 6.6255 14.805 14.805 14.805H105v-29.61zm22.295 0H105v29.61h20.195c8.17607 0 14.805-6.629 14.805-14.805 0-8.17663-6.62893-14.805-14.805-14.805m67.305 0c8.17691 0 14.805 6.62851 14.805 14.805 0 8.17691-6.62809 14.805-14.805 14.805-8.17649 0-14.805-6.62809-14.805-14.805 0-8.17649 6.62851-14.805 14.805-14.805m85.4 0h-18.095c-8.1795 0-14.805 6.63054-14.805 14.805 0 8.17355 6.6255 14.805 14.805 14.805H280v-29.61zm22.295 0H280v29.61h20.195c8.17607 0 14.805-6.629 14.805-14.805 0-8.17663-6.62893-14.805-14.805-14.805m187.705 0h-18.095c-8.1795 0-14.805 6.63054-14.805 14.805 0 8.17355 6.6255 14.805 14.805 14.805H490v-29.61zm22.295 0H490v29.61h20.195c8.17607 0 14.805-6.629 14.805-14.805 0-8.17663-6.62893-14.805-14.805-14.805m82.705 0h-18.095c-8.1795 0-14.805 6.63054-14.805 14.805 0 8.17355 6.6255 14.805 14.805 14.805H595v-29.61zm22.295 0H595v29.61h20.195c8.17607 0 14.805-6.629 14.805-14.805 0-8.17663-6.62893-14.805-14.805-14.805m82.705 0h-18.095c-8.1795 0-14.805 6.63054-14.805 14.805 0 8.17355 6.6255 14.805 14.805 14.805H700v-29.61zm22.295 0H700v29.61h20.195c8.17607 0 14.805-6.629 14.805-14.805 0-8.17663-6.62893-14.805-14.805-14.805m67.305 0c8.17691 0 14.805 6.62851 14.805 14.805 0 8.17691-6.62809 14.805-14.805 14.805-8.17649 0-14.805-6.62809-14.805-14.805 0-8.17649 6.62851-14.805 14.805-14.805m190.4 0h-18.095c-8.1795 0-14.805 6.63054-14.805 14.805 0 8.17355 6.6255 14.805 14.805 14.805H980v-29.61zm22.295 0H980v29.61h20.195c8.17607 0 14.805-6.629 14.805-14.805 0-8.17663-6.62893-14.805-14.805-14.805m-912.695 35c8.17691 0 14.805 6.62851 14.805 14.805 0 8.17691-6.62809 14.805-14.805 14.805-8.17649 0-14.805-6.62809-14.805-14.805 0-8.17649 6.62851-14.805 14.805-14.805m85.4 0h-18.095c-8.1795 0-14.805 6.63054-14.805 14.805 0 8.17355 6.6255 14.805 14.805 14.805H175v-29.61zm22.295 0H175v29.61h20.195c8.17607 0 14.805-6.629 14.805-14.805 0-8.17663-6.62893-14.805-14.805-14.805m67.305 0c8.17691 0 14.805 6.62851 14.805 14.805 0 8.17691-6.62809 14.805-14.805 14.805-8.17649 0-14.805-6.62809-14.805-14.805 0-8.17649 6.62851-14.805 14.805-14.805m120.4 0h-18.095c-8.1795 0-14.805 6.63054-14.805 14.805 0 8.17355 6.6255 14.805 14.805 14.805H385v-29.61zm22.295 0H385v29.61h20.195c8.17607 0 14.805-6.629 14.805-14.805 0-8.17663-6.62893-14.805-14.805-14.805m172.305 0c8.17691 0 14.805 6.62851 14.805 14.805 0 8.17691-6.62809 14.805-14.805 14.805-8.17649 0-14.805-6.62809-14.805-14.805 0-8.17649 6.62851-14.805 14.805-14.805m70 0c8.17691 0 14.805 6.62851 14.805 14.805 0 8.17691-6.62809 14.805-14.805 14.805-8.17649 0-14.805-6.62809-14.805-14.805 0-8.17649 6.62851-14.805 14.805-14.805m85.4 0h-18.095c-8.1795 0-14.805 6.63054-14.805 14.805 0 8.17355 6.6255 14.805 14.805 14.805H735v-29.61zm22.295 0H735v29.61h20.195c8.17607 0 14.805-6.629 14.805-14.805 0-8.17663-6.62893-14.805-14.805-14.805m102.305 0c8.17691 0 14.805 6.62851 14.805 14.805 0 8.17691-6.62809 14.805-14.805 14.805-8.17649 0-14.805-6.62809-14.805-14.805 0-8.17649 6.62851-14.805 14.805-14.805m155.4 0h-18.095c-8.1795 0-14.805 6.63054-14.805 14.805 0 8.17355 6.6255 14.805 14.805 14.805H1015v-29.61zm19.6 0H1015v29.61h35v-29.61zm37.695 0H1050v29.61h20.195c8.17607 0 14.805-6.629 14.805-14.805 0-8.17663-6.62893-14.805-14.805-14.805m-912.695 35c8.17691 0 14.805 6.62851 14.805 14.805 0 8.17691-6.62809 14.805-14.805 14.805-8.17649 0-14.805-6.62809-14.805-14.805 0-8.17649 6.62851-14.805 14.805-14.805m120.4 0h-18.095c-8.1795 0-14.805 6.63054-14.805 14.805 0 8.17355 6.6255 14.805 14.805 14.805H280v-29.61zm22.295 0H280v29.61h20.195c8.17607 0 14.805-6.629 14.805-14.805 0-8.17663-6.62893-14.805-14.805-14.805m117.705 0h-18.095c-8.1795 0-14.805 6.63054-14.805 14.805 0 8.17355 6.6255 14.805 14.805 14.805H420v-29.61zm22.295 0H420v29.61h20.195c8.17607 0 14.805-6.629 14.805-14.805 0-8.17663-6.62893-14.805-14.805-14.805m82.705 0h-18.095c-8.1795 0-14.805 6.63054-14.805 14.805 0 8.17355 6.6255 14.805 14.805 14.805H525v-29.61zm22.295 0H525v29.61h20.195c8.17607 0 14.805-6.629 14.805-14.805 0-8.17663-6.62893-14.805-14.805-14.805m82.705 0h-18.095c-8.1795 0-14.805 6.63054-14.805 14.805 0 8.17355 6.6255 14.805 14.805 14.805H630v-29.61zm19.6 0H630v29.61h35v-29.61zm35 0H665v29.61h35v-29.61zm35 0H700v29.61h35v-29.61zm37.695 0H735v29.61h20.195c8.17607 0 14.805-6.629 14.805-14.805 0-8.17663-6.62893-14.805-14.805-14.805m67.305 0c8.17691 0 14.805 6.62851 14.805 14.805 0 8.17691-6.62809 14.805-14.805 14.805-8.17649 0-14.805-6.62809-14.805-14.805 0-8.17649 6.62851-14.805 14.805-14.805m85.4 0h-18.095c-8.1795 0-14.805 6.63054-14.805 14.805 0 8.17355 6.6255 14.805 14.805 14.805H910v-29.61zm22.295 0H910v29.61h20.195c8.17607 0 14.805-6.629 14.805-14.805 0-8.17663-6.62893-14.805-14.805-14.805m82.705 0h-18.095c-8.1795 0-14.805 6.63054-14.805 14.805 0 8.17355 6.6255 14.805 14.805 14.805H1015v-29.61zm19.6 0H1015v29.61h35v-29.61zm37.695 0H1050v29.61h20.195c8.17607 0 14.805-6.629 14.805-14.805 0-8.17663-6.62893-14.805-14.805-14.805m-877.695 35c8.17691 0 14.805 6.62851 14.805 14.805 0 8.17691-6.62809 14.805-14.805 14.805-8.17649 0-14.805-6.62809-14.805-14.805 0-8.17649 6.62851-14.805 14.805-14.805m210 0c8.17691 0 14.805 6.62851 14.805 14.805 0 8.17691-6.62809 14.805-14.805 14.805-8.17649 0-14.805-6.62809-14.805-14.805 0-8.17649 6.62851-14.805 14.805-14.805m105 0c8.17691 0 14.805 6.62851 14.805 14.805 0 8.17691-6.62809 14.805-14.805 14.805-8.17649 0-14.805-6.62809-14.805-14.805 0-8.17649 6.62851-14.805 14.805-14.805m70 0c8.17691 0 14.805 6.62851 14.805 14.805 0 8.17691-6.62809 14.805-14.805 14.805-8.17649 0-14.805-6.62809-14.805-14.805 0-8.17649 6.62851-14.805 14.805-14.805m70 0c8.17691 0 14.805 6.62851 14.805 14.805 0 8.17691-6.62809 14.805-14.805 14.805-8.17649 0-14.805-6.62809-14.805-14.805 0-8.17649 6.62851-14.805 14.805-14.805m190.4 0h-18.095c-8.1795 0-14.805 6.63054-14.805 14.805 0 8.17355 6.6255 14.805 14.805 14.805H840v-29.61zm22.295 0H840v29.61h20.195c8.17607 0 14.805-6.629 14.805-14.805 0-8.17663-6.62893-14.805-14.805-14.805m67.305 0c8.17691 0 14.805 6.62851 14.805 14.805 0 8.17691-6.62809 14.805-14.805 14.805-8.17649 0-14.805-6.62809-14.805-14.805 0-8.17649 6.62851-14.805 14.805-14.805m105 0c8.17691 0 14.805 6.62851 14.805 14.805 0 8.17691-6.62809 14.805-14.805 14.805-8.17649 0-14.805-6.62809-14.805-14.805 0-8.17649 6.62851-14.805 14.805-14.805m-929.6 35H84.805C76.6255 632.695 70 639.32554 70 647.5c0 8.17355 6.6255 14.805 14.805 14.805H105v-29.61zm22.295 0H105v29.61h20.195c8.17607 0 14.805-6.629 14.805-14.805 0-8.17663-6.62893-14.805-14.805-14.805m117.705 0h-18.095c-8.1795 0-14.805 6.63054-14.805 14.805 0 8.17355 6.6255 14.805 14.805 14.805H245v-29.61zm19.6 0H245v29.61h35v-29.61zm35 0H280v29.61h35v-29.61zm35 0H315v29.61h35v-29.61zm37.695 0H350v29.61h20.195c8.17607 0 14.805-6.629 14.805-14.805 0-8.17663-6.62893-14.805-14.805-14.805m67.305 0c8.17691 0 14.805 6.62851 14.805 14.805 0 8.17691-6.62809 14.805-14.805 14.805-8.17649 0-14.805-6.62809-14.805-14.805 0-8.17649 6.62851-14.805 14.805-14.805m155.4 0h-18.095c-8.1795 0-14.805 6.63054-14.805 14.805 0 8.17355 6.6255 14.805 14.805 14.805H595v-29.61zm19.6 0H595v29.61h35v-29.61zm37.695 0H630v29.61h20.195c8.17607 0 14.805-6.629 14.805-14.805 0-8.17663-6.62893-14.805-14.805-14.805m82.705 0h-18.095c-8.1795 0-14.805 6.63054-14.805 14.805 0 8.17355 6.6255 14.805 14.805 14.805H735v-29.61zm19.6 0H735v29.61h35v-29.61zm35 0H770v29.61h35v-29.61zm37.695 0H805v29.61h20.195c8.17607 0 14.805-6.629 14.805-14.805 0-8.17663-6.62893-14.805-14.805-14.805m82.705 0h-18.095c-8.1795 0-14.805 6.63054-14.805 14.805 0 8.17355 6.6255 14.805 14.805 14.805H910v-29.61zm19.6 0H910v29.61h35v-29.61zm37.695 0H945v29.61h20.195c8.17607 0 14.805-6.629 14.805-14.805 0-8.17663-6.62893-14.805-14.805-14.805m67.305 0c8.17691 0 14.805 6.62851 14.805 14.805 0 8.17691-6.62809 14.805-14.805 14.805-8.17649 0-14.805-6.62809-14.805-14.805 0-8.17649 6.62851-14.805 14.805-14.805m-770 35c8.17691 0 14.805 6.62851 14.805 14.805 0 8.17691-6.62809 14.805-14.805 14.805-8.17649 0-14.805-6.62809-14.805-14.805 0-8.17649 6.62851-14.805 14.805-14.805m85.4 0h-18.095c-8.1795 0-14.805 6.63054-14.805 14.805 0 8.17355 6.6255 14.805 14.805 14.805H350v-29.61zm22.295 0H350v29.61h20.195c8.17607 0 14.805-6.629 14.805-14.805 0-8.17663-6.62893-14.805-14.805-14.805m137.305 0c8.17691 0 14.805 6.62851 14.805 14.805 0 8.17691-6.62809 14.805-14.805 14.805-8.17649 0-14.805-6.62809-14.805-14.805 0-8.17649 6.62851-14.805 14.805-14.805m70 0c8.17691 0 14.805 6.62851 14.805 14.805 0 8.17691-6.62809 14.805-14.805 14.805-8.17649 0-14.805-6.62809-14.805-14.805 0-8.17649 6.62851-14.805 14.805-14.805m70 0c8.17691 0 14.805 6.62851 14.805 14.805 0 8.17691-6.62809 14.805-14.805 14.805-8.17649 0-14.805-6.62809-14.805-14.805 0-8.17649 6.62851-14.805 14.805-14.805m70 0c8.17691 0 14.805 6.62851 14.805 14.805 0 8.17691-6.62809 14.805-14.805 14.805-8.17649 0-14.805-6.62809-14.805-14.805 0-8.17649 6.62851-14.805 14.805-14.805m70 0c8.17691 0 14.805 6.62851 14.805 14.805 0 8.17691-6.62809 14.805-14.805 14.805-8.17649 0-14.805-6.62809-14.805-14.805 0-8.17649 6.62851-14.805 14.805-14.805m105 0c8.17691 0 14.805 6.62851 14.805 14.805 0 8.17691-6.62809 14.805-14.805 14.805-8.17649 0-14.805-6.62809-14.805-14.805 0-8.17649 6.62851-14.805 14.805-14.805m85.4 0h-18.095c-8.1795 0-14.805 6.63054-14.805 14.805 0 8.17355 6.6255 14.805 14.805 14.805H980v-29.61zm19.6 0H980v29.61h35v-29.61zm37.695 0H1015v29.61h20.195c8.17607 0 14.805-6.629 14.805-14.805 0-8.17663-6.62893-14.805-14.805-14.805m-947.695 35c8.17691 0 14.805 6.62851 14.805 14.805 0 8.17691-6.62809 14.805-14.805 14.805-8.17649 0-14.805-6.62809-14.805-14.805 0-8.17649 6.62851-14.805 14.805-14.805m85.4 0h-18.095c-8.1795 0-14.805 6.63054-14.805 14.805 0 8.17355 6.6255 14.805 14.805 14.805H175v-29.61zm19.6 0H175v29.61h35v-29.61zm37.695 0H210v29.61h20.195c8.17607 0 14.805-6.629 14.805-14.805 0-8.17663-6.62893-14.805-14.805-14.805m67.305 0c8.17691 0 14.805 6.62851 14.805 14.805 0 8.17691-6.62809 14.805-14.805 14.805-8.17649 0-14.805-6.62809-14.805-14.805 0-8.17649 6.62851-14.805 14.805-14.805m85.4 0h-18.095c-8.1795 0-14.805 6.63054-14.805 14.805 0 8.17355 6.6255 14.805 14.805 14.805H385v-29.61zm19.6 0H385v29.61h35v-29.61zm37.695 0H420v29.61h20.195c8.17607 0 14.805-6.629 14.805-14.805 0-8.17663-6.62893-14.805-14.805-14.805m117.705 0h-18.095c-8.1795 0-14.805 6.63054-14.805 14.805 0 8.17355 6.6255 14.805 14.805 14.805H560v-29.61zm19.6 0H560v29.61h35v-29.61zm35 0H595v29.61h35v-29.61zm37.695 0H630v29.61h20.195c8.17607 0 14.805-6.629 14.805-14.805 0-8.17663-6.62893-14.805-14.805-14.805m67.305 0c8.17691 0 14.805 6.62851 14.805 14.805 0 8.17691-6.62809 14.805-14.805 14.805-8.17649 0-14.805-6.62809-14.805-14.805 0-8.17649 6.62851-14.805 14.805-14.805m85.4 0h-18.095c-8.1795 0-14.805 6.63054-14.805 14.805 0 8.17355 6.6255 14.805 14.805 14.805H805v-29.61zm22.295 0H805v29.61h20.195c8.17607 0 14.805-6.629 14.805-14.805 0-8.17663-6.62893-14.805-14.805-14.805m82.705 0h-18.095c-8.1795 0-14.805 6.63054-14.805 14.805 0 8.17355 6.6255 14.805 14.805 14.805H910v-29.61zm22.295 0H910v29.61h20.195c8.17607 0 14.805-6.629 14.805-14.805 0-8.17663-6.62893-14.805-14.805-14.805m67.305 0c8.17691 0 14.805 6.62851 14.805 14.805 0 8.17691-6.62809 14.805-14.805 14.805-8.17649 0-14.805-6.62809-14.805-14.805 0-8.17649 6.62851-14.805 14.805-14.805m-840 35c8.17691 0 14.805 6.62851 14.805 14.805 0 8.17691-6.62809 14.805-14.805 14.805-8.17649 0-14.805-6.62809-14.805-14.805 0-8.17649 6.62851-14.805 14.805-14.805m70 0c8.17691 0 14.805 6.62851 14.805 14.805 0 8.17691-6.62809 14.805-14.805 14.805-8.17649 0-14.805-6.62809-14.805-14.805 0-8.17649 6.62851-14.805 14.805-14.805m105 0c8.17691 0 14.805 6.62851 14.805 14.805 0 8.17691-6.62809 14.805-14.805 14.805-8.17649 0-14.805-6.62809-14.805-14.805 0-8.17649 6.62851-14.805 14.805-14.805m85.4 0h-18.095c-8.1795 0-14.805 6.63054-14.805 14.805 0 8.17355 6.6255 14.805 14.805 14.805H420v-29.61zm19.6 0H420v29.61h35v-29.61zm35 0H455v29.61h35v-29.61zm35 0H490v29.61h35v-29.61zm35 0H525v29.61h35v-29.61zm37.695 0H560v29.61h20.195c8.17607 0 14.805-6.629 14.805-14.805 0-8.17663-6.62893-14.805-14.805-14.805m117.705 0h-18.095c-8.1795 0-14.805 6.63054-14.805 14.805 0 8.17355 6.6255 14.805 14.805 14.805H700v-29.61zm19.6 0H700v29.61h35v-29.61zm37.695 0H735v29.61h20.195c8.17607 0 14.805-6.629 14.805-14.805 0-8.17663-6.62893-14.805-14.805-14.805m102.305 0c8.17691 0 14.805 6.62851 14.805 14.805 0 8.17691-6.62809 14.805-14.805 14.805-8.17649 0-14.805-6.62809-14.805-14.805 0-8.17649 6.62851-14.805 14.805-14.805m140 0c8.17691 0 14.805 6.62851 14.805 14.805 0 8.17691-6.62809 14.805-14.805 14.805-8.17649 0-14.805-6.62809-14.805-14.805 0-8.17649 6.62851-14.805 14.805-14.805m-859.6 35h-18.095c-8.1795 0-14.805 6.63054-14.805 14.805 0 8.17355 6.6255 14.805 14.805 14.805H140v-29.61zm22.295 0H140v29.61h20.195c8.17607 0 14.805-6.629 14.805-14.805 0-8.17663-6.62893-14.805-14.805-14.805m67.305 0c8.17691 0 14.805 6.62851 14.805 14.805 0 8.17691-6.62809 14.805-14.805 14.805-8.17649 0-14.805-6.62809-14.805-14.805 0-8.17649 6.62851-14.805 14.805-14.805m85.4 0h-18.095c-8.1795 0-14.805 6.63054-14.805 14.805 0 8.17355 6.6255 14.805 14.805 14.805H315v-29.61zm19.6 0H315v29.61h35v-29.61zm37.695 0H350v29.61h20.195c8.17607 0 14.805-6.629 14.805-14.805 0-8.17663-6.62893-14.805-14.805-14.805m102.305 0c8.17691 0 14.805 6.62851 14.805 14.805 0 8.17691-6.62809 14.805-14.805 14.805-8.17649 0-14.805-6.62809-14.805-14.805 0-8.17649 6.62851-14.805 14.805-14.805m85.4 0h-18.095c-8.1795 0-14.805 6.63054-14.805 14.805 0 8.17355 6.6255 14.805 14.805 14.805H560v-29.61zm22.295 0H560v29.61h20.195c8.17607 0 14.805-6.629 14.805-14.805 0-8.17663-6.62893-14.805-14.805-14.805m82.705 0h-18.095c-8.1795 0-14.805 6.63054-14.805 14.805 0 8.17355 6.6255 14.805 14.805 14.805H665v-29.61zm22.295 0H665v29.61h20.195c8.17607 0 14.805-6.629 14.805-14.805 0-8.17663-6.62893-14.805-14.805-14.805m82.705 0h-18.095c-8.1795 0-14.805 6.63054-14.805 14.805 0 8.17355 6.6255 14.805 14.805 14.805H770v-29.61zm19.6 0H770v29.61h35v-29.61zm35 0H805v29.61h35v-29.61zm35 0H840v29.61h35v-29.61zm35 0H875v29.61h35v-29.61zm35 0H910v29.61h35v-29.61zm35 0H945v29.61h35v-29.61zm37.695 0H980v29.61h20.195c8.17607 0 14.805-6.629 14.805-14.805 0-8.17663-6.62893-14.805-14.805-14.805m-617.295 35h-18.095c-8.1795 0-14.805 6.63054-14.805 14.805 0 8.17355 6.6255 14.805 14.805 14.805H385v-29.61zm19.6 0H385v29.61h35v-29.61zm35 0H420v29.61h35v-29.61zm37.695 0H455v29.61h20.195c8.17607 0 14.805-6.629 14.805-14.805 0-8.17663-6.62893-14.805-14.805-14.805m152.705 0h-18.095c-8.1795 0-14.805 6.63054-14.805 14.805 0 8.17355 6.6255 14.805 14.805 14.805H630v-29.61zm19.6 0H630v29.61h35v-29.61zm37.695 0H665v29.61h20.195c8.17607 0 14.805-6.629 14.805-14.805 0-8.17663-6.62893-14.805-14.805-14.805m102.305 0c8.17691 0 14.805 6.62851 14.805 14.805 0 8.17691-6.62809 14.805-14.805 14.805-8.17649 0-14.805-6.62809-14.805-14.805 0-8.17649 6.62851-14.805 14.805-14.805m155.4 0h-18.095c-8.1795 0-14.805 6.63054-14.805 14.805 0 8.17355 6.6255 14.805 14.805 14.805H945v-29.61zm19.6 0H945v29.61h35v-29.61zm35 0H980v29.61h35v-29.61zm35 0H1015v29.61h35v-29.61zm37.695 0H1050v29.61h20.195c8.17607 0 14.805-6.629 14.805-14.805 0-8.17663-6.62893-14.805-14.805-14.805m-702.695 35c8.17691 0 14.805 6.62851 14.805 14.805 0 8.17691-6.62809 14.805-14.805 14.805-8.17649 0-14.805-6.62809-14.805-14.805 0-8.17649 6.62851-14.805 14.805-14.805m120.4 0h-18.095c-8.1795 0-14.805 6.63054-14.805 14.805 0 8.17355 6.6255 14.805 14.805 14.805H490v-29.61zm22.295 0H490v29.61h20.195c8.17607 0 14.805-6.629 14.805-14.805 0-8.17663-6.62893-14.805-14.805-14.805m82.705 0h-18.095c-8.1795 0-14.805 6.63054-14.805 14.805 0 8.17355 6.6255 14.805 14.805 14.805H595v-29.61zm22.295 0H595v29.61h20.195c8.17607 0 14.805-6.629 14.805-14.805 0-8.17663-6.62893-14.805-14.805-14.805m82.705 0h-18.095c-8.1795 0-14.805 6.63054-14.805 14.805 0 8.17355 6.6255 14.805 14.805 14.805H700v-29.61zm19.6 0H700v29.61h35v-29.61zm35 0H735v29.61h35v-29.61zm37.695 0H770v29.61h20.195c8.17607 0 14.805-6.629 14.805-14.805 0-8.17663-6.62893-14.805-14.805-14.805m67.305 0c8.17691 0 14.805 6.62851 14.805 14.805 0 8.17691-6.62809 14.805-14.805 14.805-8.17649 0-14.805-6.62809-14.805-14.805 0-8.17649 6.62851-14.805 14.805-14.805m85.4 0h-18.095c-8.1795 0-14.805 6.63054-14.805 14.805 0 8.17355 6.6255 14.805 14.805 14.805H945v-29.61zm22.295 0H945v29.61h20.195c8.17607 0 14.805-6.629 14.805-14.805 0-8.17663-6.62893-14.805-14.805-14.805m67.305 0c8.17691 0 14.805 6.62851 14.805 14.805 0 8.17691-6.62809 14.805-14.805 14.805-8.17649 0-14.805-6.62809-14.805-14.805 0-8.17649 6.62851-14.805 14.805-14.805m-649.6 35h-18.095c-8.1795 0-14.805 6.63054-14.805 14.805 0 8.17355 6.6255 14.805 14.805 14.805H385v-29.61zm22.295 0H385v29.61h20.195c8.17607 0 14.805-6.629 14.805-14.805 0-8.17663-6.62893-14.805-14.805-14.805m67.305 0c8.17691 0 14.805 6.62851 14.805 14.805 0 8.17691-6.62809 14.805-14.805 14.805-8.17649 0-14.805-6.62809-14.805-14.805 0-8.17649 6.62851-14.805 14.805-14.805m85.4 0h-18.095c-8.1795 0-14.805 6.63054-14.805 14.805 0 8.17355 6.6255 14.805 14.805 14.805H560v-29.61zm19.6 0H560v29.61h35v-29.61zm37.695 0H595v29.61h20.195c8.17607 0 14.805-6.629 14.805-14.805 0-8.17663-6.62893-14.805-14.805-14.805m102.305 0c8.17691 0 14.805 6.62851 14.805 14.805 0 8.17691-6.62809 14.805-14.805 14.805-8.17649 0-14.805-6.62809-14.805-14.805 0-8.17649 6.62851-14.805 14.805-14.805m70 0c8.17691 0 14.805 6.62851 14.805 14.805 0 8.17691-6.62809 14.805-14.805 14.805-8.17649 0-14.805-6.62809-14.805-14.805 0-8.17649 6.62851-14.805 14.805-14.805m155.4 0h-18.095c-8.1795 0-14.805 6.63054-14.805 14.805 0 8.17355 6.6255 14.805 14.805 14.805H945v-29.61zm22.295 0H945v29.61h20.195c8.17607 0 14.805-6.629 14.805-14.805 0-8.17663-6.62893-14.805-14.805-14.805m-547.295 35h-18.095c-8.1795 0-14.805 6.63054-14.805 14.805 0 8.17355 6.6255 14.805 14.805 14.805H420v-29.61zm22.295 0H420v29.61h20.195c8.17607 0 14.805-6.629 14.805-14.805 0-8.17663-6.62893-14.805-14.805-14.805m67.305 0c8.17691 0 14.805 6.62851 14.805 14.805 0 8.17691-6.62809 14.805-14.805 14.805-8.17649 0-14.805-6.62809-14.805-14.805 0-8.17649 6.62851-14.805 14.805-14.805m175 0c8.17691 0 14.805 6.62851 14.805 14.805 0 8.17691-6.62809 14.805-14.805 14.805-8.17649 0-14.805-6.62809-14.805-14.805 0-8.17649 6.62851-14.805 14.805-14.805m120.4 0h-18.095c-8.1795 0-14.805 6.63054-14.805 14.805 0 8.17355 6.6255 14.805 14.805 14.805H805v-29.61zm19.6 0H805v29.61h35v-29.61zm35 0H840v29.61h35v-29.61zm35 0H875v29.61h35v-29.61zm37.695 0H910v29.61h20.195c8.17607 0 14.805-6.629 14.805-14.805 0-8.17663-6.62893-14.805-14.805-14.805m67.305 0c8.17691 0 14.805 6.62851 14.805 14.805 0 8.17691-6.62809 14.805-14.805 14.805-8.17649 0-14.805-6.62809-14.805-14.805 0-8.17649 6.62851-14.805 14.805-14.805m70 0c8.17691 0 14.805 6.62851 14.805 14.805 0 8.17691-6.62809 14.805-14.805 14.805-8.17649 0-14.805-6.62809-14.805-14.805 0-8.17649 6.62851-14.805 14.805-14.805m-700 35c8.17691 0 14.805 6.62851 14.805 14.805 0 8.17691-6.62809 14.805-14.805 14.805-8.17649 0-14.805-6.62809-14.805-14.805 0-8.17649 6.62851-14.805 14.805-14.805m70 0c8.17691 0 14.805 6.62851 14.805 14.805 0 8.17691-6.62809 14.805-14.805 14.805-8.17649 0-14.805-6.62809-14.805-14.805 0-8.17649 6.62851-14.805 14.805-14.805m85.4 0h-18.095c-8.1795 0-14.805 6.63054-14.805 14.805 0 8.17355 6.6255 14.805 14.805 14.805H525v-29.61zm22.295 0H525v29.61h20.195c8.17607 0 14.805-6.629 14.805-14.805 0-8.17663-6.62893-14.805-14.805-14.805m152.705 0h-18.095c-8.1795 0-14.805 6.63054-14.805 14.805 0 8.17355 6.6255 14.805 14.805 14.805H700v-29.61zm19.6 0H700v29.61h35v-29.61zm35 0H735v29.61h35v-29.61zm35 0H770v29.61h35v-29.61zm37.695 0H805v29.61h20.195c8.17607 0 14.805-6.629 14.805-14.805 0-8.17663-6.62893-14.805-14.805-14.805m82.705 0h-18.095c-8.1795 0-14.805 6.63054-14.805 14.805 0 8.17355 6.6255 14.805 14.805 14.805H910v-29.61zm19.6 0H910v29.61h35v-29.61zm37.695 0H945v29.61h20.195c8.17607 0 14.805-6.629 14.805-14.805 0-8.17663-6.62893-14.805-14.805-14.805m67.305 0c8.17691 0 14.805 6.62851 14.805 14.805 0 8.17691-6.62809 14.805-14.805 14.805-8.17649 0-14.805-6.62809-14.805-14.805 0-8.17649 6.62851-14.805 14.805-14.805m-665 35c8.17691 0 14.805 6.62851 14.805 14.805 0 8.17691-6.62809 14.805-14.805 14.805-8.17649 0-14.805-6.62809-14.805-14.805 0-8.17649 6.62851-14.805 14.805-14.805m155.4 0h-18.095c-8.1795 0-14.805 6.63054-14.805 14.805 0 8.17355 6.6255 14.805 14.805 14.805H525v-29.61zm19.6 0H525v29.61h35v-29.61zm37.695 0H560v29.61h20.195c8.17607 0 14.805-6.629 14.805-14.805 0-8.17663-6.62893-14.805-14.805-14.805m67.305 0c8.17691 0 14.805 6.62851 14.805 14.805 0 8.17691-6.62809 14.805-14.805 14.805-8.17649 0-14.805-6.62809-14.805-14.805 0-8.17649 6.62851-14.805 14.805-14.805m120.4 0h-18.095c-8.1795 0-14.805 6.63054-14.805 14.805 0 8.17355 6.6255 14.805 14.805 14.805H770v-29.61zm19.6 0H770v29.61h35v-29.61zm37.695 0H805v29.61h20.195c8.17607 0 14.805-6.629 14.805-14.805 0-8.17663-6.62893-14.805-14.805-14.805m67.305 0c8.17691 0 14.805 6.62851 14.805 14.805 0 8.17691-6.62809 14.805-14.805 14.805-8.17649 0-14.805-6.62809-14.805-14.805 0-8.17649 6.62851-14.805 14.805-14.805m105 0c8.17691 0 14.805 6.62851 14.805 14.805 0 8.17691-6.62809 14.805-14.805 14.805-8.17649 0-14.805-6.62809-14.805-14.805 0-8.17649 6.62851-14.805 14.805-14.805m70 0c8.17691 0 14.805 6.62851 14.805 14.805 0 8.17691-6.62809 14.805-14.805 14.805-8.17649 0-14.805-6.62809-14.805-14.805 0-8.17649 6.62851-14.805 14.805-14.805m-649.6 35h-18.095c-8.1795 0-14.805 6.63054-14.805 14.805 0 8.17355 6.6255 14.805 14.805 14.805H420v-29.61zm19.6 0H420v29.61h35v-29.61zm35 0H455v29.61h35v-29.61zm37.695 0H490v29.61h20.195c8.17607 0 14.805-6.629 14.805-14.805 0-8.17663-6.62893-14.805-14.805-14.805m67.305 0c8.17691 0 14.805 6.62851 14.805 14.805 0 8.17691-6.62809 14.805-14.805 14.805-8.17649 0-14.805-6.62809-14.805-14.805 0-8.17649 6.62851-14.805 14.805-14.805m225.4 0h-18.095c-8.1795 0-14.805 6.63054-14.805 14.805 0 8.17355 6.6255 14.805 14.805 14.805H805v-29.61zm22.295 0H805v29.61h20.195c8.17607 0 14.805-6.629 14.805-14.805 0-8.17663-6.62893-14.805-14.805-14.805m117.705 0h-18.095c-8.1795 0-14.805 6.63054-14.805 14.805 0 8.17355 6.6255 14.805 14.805 14.805H945v-29.61zm22.295 0H945v29.61h20.195c8.17607 0 14.805-6.629 14.805-14.805 0-8.17663-6.62893-14.805-14.805-14.805m67.305 0c8.17691 0 14.805 6.62851 14.805 14.805 0 8.17691-6.62809 14.805-14.805 14.805-8.17649 0-14.805-6.62809-14.805-14.805 0-8.17649 6.62851-14.805 14.805-14.805m-649.6 35h-18.095c-8.1795 0-14.805 6.63054-14.805 14.805 0 8.17355 6.6255 14.805 14.805 14.805H385v-29.61zm22.295 0H385v29.61h20.195c8.17607 0 14.805-6.629 14.805-14.805 0-8.17663-6.62893-14.805-14.805-14.805m67.305 0c8.17691 0 14.805 6.62851 14.805 14.805 0 8.17691-6.62809 14.805-14.805 14.805-8.17649 0-14.805-6.62809-14.805-14.805 0-8.17649 6.62851-14.805 14.805-14.805m175 0c8.17691 0 14.805 6.62851 14.805 14.805 0 8.17691-6.62809 14.805-14.805 14.805-8.17649 0-14.805-6.62809-14.805-14.805 0-8.17649 6.62851-14.805 14.805-14.805m85.4 0h-18.095c-8.1795 0-14.805 6.63054-14.805 14.805 0 8.17355 6.6255 14.805 14.805 14.805H735v-29.61zm19.6 0H735v29.61h35v-29.61zm37.695 0H770v29.61h20.195c8.17607 0 14.805-6.629 14.805-14.805 0-8.17663-6.62893-14.805-14.805-14.805m67.305 0c8.17691 0 14.805 6.62851 14.805 14.805 0 8.17691-6.62809 14.805-14.805 14.805-8.17649 0-14.805-6.62809-14.805-14.805 0-8.17649 6.62851-14.805 14.805-14.805m175 0c8.17691 0 14.805 6.62851 14.805 14.805 0 8.17691-6.62809 14.805-14.805 14.805-8.17649 0-14.805-6.62809-14.805-14.805 0-8.17649 6.62851-14.805 14.805-14.805"/><path fill="none" d="M152.761 106.75H278.25v171.5H106.7598l.0392-124.59475c0-25.86955 20.6192-46.90525 45.962-46.90525"/><path fill="#333" d="M315 70v245H70l.049-161.35455C70.049 107.534 107.142 70 152.761 70zm-36.75 36.75H152.761c-25.3428 0-45.962 21.0357-45.962 46.90525L106.7598 278.25H278.25z"/><path fill="none" d="M1002.239 106.75H876.75v171.5h171.4902l-.0392-124.59475c0-25.86955-20.6192-46.90525-45.962-46.90525"/><path fill="#333" d="M840 70v245h245l-.049-161.35455C1084.951 107.534 1047.858 70 1002.239 70zm36.75 36.75h125.489c25.3428 0 45.962 21.0357 45.962 46.90525l.0392 124.59475H876.75z"/><path fill="none" d="M152.761 1048.25H278.25v-171.5H106.7598l.0392 124.59475c0 25.86955 20.6192 46.90525 45.962 46.90525"/><path fill="#333" d="M315 1085V840H70l.049 161.35455C70.049 1047.466 107.142 1085 152.761 1085zm-36.75-36.75H152.761c-25.3428 0-45.962-21.0357-45.962-46.90525L106.7598 876.75H278.25zM140 140h105v105H140zm770 0h105v105H910z"/><path fill="#333" d="M140 910h105v105H140z"/></svg>